<svg id="visual" viewBox="0 0 960 540" width="960" height="540" xmlns="http://www.w3.org/2000/svg" xmlns:xlink="http://www.w3.org/1999/xlink" version="1.1"><path d="M0 525L17.8 523.5C35.7 522 71.3 519 106.8 515.5C142.3 512 177.7 508 213.2 507.5C248.7 507 284.3 510 320 507.5C355.7 505 391.3 497 426.8 499C462.3 501 497.7 513 533.2 519.7C568.7 526.3 604.3 527.7 640 521.2C675.7 514.7 711.3 500.3 746.8 500.7C782.3 501 817.7 516 853.2 519.2C888.7 522.3 924.3 513.7 942.2 509.3L960 505L960 541L942.2 541C924.3 541 888.7 541 853.2 541C817.7 541 782.3 541 746.8 541C711.3 541 675.7 541 640 541C604.3 541 568.7 541 533.2 541C497.7 541 462.3 541 426.8 541C391.3 541 355.7 541 320 541C284.3 541 248.7 541 213.2 541C177.7 541 142.3 541 106.8 541C71.3 541 35.7 541 17.8 541L0 541Z" fill="#3B4A55" stroke-linecap="round" stroke-linejoin="miter"></path></svg>