<svg id="visual" viewBox="0 0 960 540" width="960" height="540" xmlns="http://www.w3.org/2000/svg" xmlns:xlink="http://www.w3.org/1999/xlink" version="1.1"><path d="M0 48L17.8 43.8C35.7 39.7 71.3 31.3 106.8 24C142.3 16.7 177.7 10.3 213.2 14.3C248.7 18.3 284.3 32.7 320 35C355.7 37.3 391.3 27.7 426.8 28.5C462.3 29.3 497.7 40.7 533.2 39.3C568.7 38 604.3 24 640 19.3C675.7 14.7 711.3 19.3 746.8 24.3C782.3 29.3 817.7 34.7 853.2 34.5C888.7 34.3 924.3 28.7 942.2 25.8L960 23L960 0L942.2 0C924.3 0 888.7 0 853.2 0C817.7 0 782.3 0 746.8 0C711.3 0 675.7 0 640 0C604.3 0 568.7 0 533.2 0C497.7 0 462.3 0 426.8 0C391.3 0 355.7 0 320 0C284.3 0 248.7 0 213.2 0C177.7 0 142.3 0 106.8 0C71.3 0 35.7 0 17.8 0L0 0Z" fill="#3B4A55" stroke-linecap="round" stroke-linejoin="miter"></path></svg>