<svg id="visual" viewBox="0 0 960 540" width="960" height="540" xmlns="http://www.w3.org/2000/svg" xmlns:xlink="http://www.w3.org/1999/xlink" version="1.1"><path d="M0 506L17.8 511.3C35.7 516.7 71.3 527.3 106.8 531.3C142.3 535.3 177.7 532.7 213.2 526.7C248.7 520.7 284.3 511.3 320 506C355.7 500.7 391.3 499.3 426.8 500.7C462.3 502 497.7 506 533.2 512.2C568.7 518.3 604.3 526.7 640 531.5C675.7 536.3 711.3 537.7 746.8 531.8C782.3 526 817.7 513 853.2 512.2C888.7 511.3 924.3 522.7 942.2 528.3L960 534L960 541L942.2 541C924.3 541 888.7 541 853.2 541C817.7 541 782.3 541 746.8 541C711.3 541 675.7 541 640 541C604.3 541 568.7 541 533.2 541C497.7 541 462.3 541 426.8 541C391.3 541 355.7 541 320 541C284.3 541 248.7 541 213.2 541C177.7 541 142.3 541 106.8 541C71.3 541 35.7 541 17.8 541L0 541Z" fill="#3B4A55" stroke-linecap="round" stroke-linejoin="miter"></path></svg>